<mxfile host="Electron" agent="Mozilla/5.0 (X11; Linux x86_64) AppleWebKit/537.36 (KHTML, like Gecko) draw.io/26.0.16 Chrome/132.0.6834.196 Electron/34.2.0 Safari/537.36" version="26.0.16" pages="3">
  <diagram name="Circuit Diagram" id="6DY7d1G9m7zKLRZAXMLK">
    <mxGraphModel dx="1613" dy="998" grid="1" gridSize="10" guides="1" tooltips="1" connect="1" arrows="1" fold="1" page="1" pageScale="1" pageWidth="850" pageHeight="1100" math="0" shadow="0">
      <root>
        <mxCell id="0" />
        <mxCell id="1" parent="0" />
        <mxCell id="dWaKCrpgJfB4JmewbSqt-1" style="edgeStyle=orthogonalEdgeStyle;rounded=0;orthogonalLoop=1;jettySize=auto;html=1;exitX=0;exitY=0;exitDx=0;exitDy=0;exitPerimeter=0;" edge="1" parent="1" source="dWaKCrpgJfB4JmewbSqt-5">
          <mxGeometry relative="1" as="geometry">
            <mxPoint x="50" y="150" as="targetPoint" />
          </mxGeometry>
        </mxCell>
        <mxCell id="dWaKCrpgJfB4JmewbSqt-66" value="3.3v" style="edgeLabel;html=1;align=center;verticalAlign=middle;resizable=0;points=[];" vertex="1" connectable="0" parent="dWaKCrpgJfB4JmewbSqt-1">
          <mxGeometry x="-0.2481" y="-1" relative="1" as="geometry">
            <mxPoint as="offset" />
          </mxGeometry>
        </mxCell>
        <mxCell id="dWaKCrpgJfB4JmewbSqt-3" style="edgeStyle=orthogonalEdgeStyle;rounded=0;orthogonalLoop=1;jettySize=auto;html=1;" edge="1" parent="1" source="dWaKCrpgJfB4JmewbSqt-5">
          <mxGeometry relative="1" as="geometry">
            <mxPoint x="100" y="150" as="targetPoint" />
          </mxGeometry>
        </mxCell>
        <mxCell id="dWaKCrpgJfB4JmewbSqt-4" value="GND" style="edgeLabel;html=1;align=center;verticalAlign=middle;resizable=0;points=[];" vertex="1" connectable="0" parent="dWaKCrpgJfB4JmewbSqt-3">
          <mxGeometry x="-0.2246" y="-1" relative="1" as="geometry">
            <mxPoint as="offset" />
          </mxGeometry>
        </mxCell>
        <mxCell id="dWaKCrpgJfB4JmewbSqt-5" value="16x16 LED Array (1)" style="whiteSpace=wrap;html=1;aspect=fixed;points=[[0,0,0,0,0],[0,0.25,0,0,0],[0,0.5,0,0,0],[0,0.75,0,0,0],[0,1,0,0,0],[0.25,0,0,0,0],[0.25,1,0,0,0],[0.5,0,0,0,0],[0.5,1,0,0,0],[0.75,0,0,0,0],[0.75,1,0,0,0],[1,0,0,0,0],[1,0.25,0,0,0],[1,0.5,0,0,0],[1,0.75,0,0,0],[1,1,0,0,0]];" vertex="1" parent="1">
          <mxGeometry x="50" y="190" width="100" height="100" as="geometry" />
        </mxCell>
        <mxCell id="dWaKCrpgJfB4JmewbSqt-11" style="edgeStyle=orthogonalEdgeStyle;rounded=0;orthogonalLoop=1;jettySize=auto;html=1;exitX=0.39;exitY=0.006;exitDx=0;exitDy=0;exitPerimeter=0;entryX=0.626;entryY=0.994;entryDx=0;entryDy=0;entryPerimeter=0;" edge="1" parent="1" source="dWaKCrpgJfB4JmewbSqt-34" target="dWaKCrpgJfB4JmewbSqt-5">
          <mxGeometry relative="1" as="geometry">
            <mxPoint x="210" y="290" as="targetPoint" />
            <Array as="points">
              <mxPoint x="112" y="360" />
              <mxPoint x="113" y="360" />
              <mxPoint x="113" y="291" />
              <mxPoint x="113" y="291" />
            </Array>
          </mxGeometry>
        </mxCell>
        <mxCell id="dWaKCrpgJfB4JmewbSqt-12" value="Din" style="edgeLabel;html=1;align=center;verticalAlign=middle;resizable=0;points=[];" vertex="1" connectable="0" parent="dWaKCrpgJfB4JmewbSqt-11">
          <mxGeometry x="-0.3232" y="1" relative="1" as="geometry">
            <mxPoint as="offset" />
          </mxGeometry>
        </mxCell>
        <mxCell id="dWaKCrpgJfB4JmewbSqt-21" value="16x16 LED Array (2)" style="whiteSpace=wrap;html=1;aspect=fixed;points=[[0,0,0,0,0],[0,0.25,0,0,0],[0,0.5,0,0,0],[0,0.75,0,0,0],[0,1,0,0,0],[0.25,0,0,0,0],[0.25,1,0,0,0],[0.5,0,0,0,0],[0.5,1,0,0,0],[0.75,0,0,0,0],[0.75,1,0,0,0],[1,0,0,0,0],[1,0.25,0,0,0],[1,0.5,0,0,0],[1,0.75,0,0,0],[1,1,0,0,0]];" vertex="1" parent="1">
          <mxGeometry x="230" y="190" width="80" height="80" as="geometry" />
        </mxCell>
        <mxCell id="dWaKCrpgJfB4JmewbSqt-22" style="edgeStyle=orthogonalEdgeStyle;rounded=0;orthogonalLoop=1;jettySize=auto;html=1;exitX=0.988;exitY=0.203;exitDx=0;exitDy=0;exitPerimeter=0;entryX=0;entryY=0.25;entryDx=0;entryDy=0;entryPerimeter=0;" edge="1" parent="1" source="dWaKCrpgJfB4JmewbSqt-5" target="dWaKCrpgJfB4JmewbSqt-21">
          <mxGeometry relative="1" as="geometry" />
        </mxCell>
        <mxCell id="dWaKCrpgJfB4JmewbSqt-23" value="Din" style="edgeLabel;html=1;align=center;verticalAlign=middle;resizable=0;points=[];" vertex="1" connectable="0" parent="dWaKCrpgJfB4JmewbSqt-22">
          <mxGeometry x="-0.2152" y="-1" relative="1" as="geometry">
            <mxPoint x="-1" as="offset" />
          </mxGeometry>
        </mxCell>
        <mxCell id="dWaKCrpgJfB4JmewbSqt-24" style="edgeStyle=orthogonalEdgeStyle;rounded=0;orthogonalLoop=1;jettySize=auto;html=1;entryX=0;entryY=0.5;entryDx=0;entryDy=0;entryPerimeter=0;exitX=0.993;exitY=0.406;exitDx=0;exitDy=0;exitPerimeter=0;" edge="1" parent="1" source="dWaKCrpgJfB4JmewbSqt-5" target="dWaKCrpgJfB4JmewbSqt-21">
          <mxGeometry relative="1" as="geometry" />
        </mxCell>
        <mxCell id="dWaKCrpgJfB4JmewbSqt-25" style="edgeStyle=orthogonalEdgeStyle;rounded=0;orthogonalLoop=1;jettySize=auto;html=1;exitX=0.996;exitY=0.601;exitDx=0;exitDy=0;exitPerimeter=0;entryX=0;entryY=0.75;entryDx=0;entryDy=0;entryPerimeter=0;" edge="1" parent="1" source="dWaKCrpgJfB4JmewbSqt-5" target="dWaKCrpgJfB4JmewbSqt-21">
          <mxGeometry relative="1" as="geometry" />
        </mxCell>
        <mxCell id="dWaKCrpgJfB4JmewbSqt-26" value="Vcc" style="edgeLabel;html=1;align=center;verticalAlign=middle;resizable=0;points=[];" vertex="1" connectable="0" parent="1">
          <mxGeometry x="179.99857142857155" y="229.9999999999999" as="geometry">
            <mxPoint x="3" as="offset" />
          </mxGeometry>
        </mxCell>
        <mxCell id="dWaKCrpgJfB4JmewbSqt-27" value="GND" style="edgeLabel;html=1;align=center;verticalAlign=middle;resizable=0;points=[];" vertex="1" connectable="0" parent="1">
          <mxGeometry x="179.99857142857155" y="252.9999999999999" as="geometry">
            <mxPoint x="2" y="-4" as="offset" />
          </mxGeometry>
        </mxCell>
        <mxCell id="dWaKCrpgJfB4JmewbSqt-30" style="edgeStyle=orthogonalEdgeStyle;rounded=0;orthogonalLoop=1;jettySize=auto;html=1;exitX=0;exitY=0.25;exitDx=0;exitDy=0;" edge="1" parent="1" source="dWaKCrpgJfB4JmewbSqt-34">
          <mxGeometry relative="1" as="geometry">
            <mxPoint y="530" as="targetPoint" />
          </mxGeometry>
        </mxCell>
        <mxCell id="dWaKCrpgJfB4JmewbSqt-31" value="5V" style="edgeLabel;html=1;align=center;verticalAlign=middle;resizable=0;points=[];" vertex="1" connectable="0" parent="dWaKCrpgJfB4JmewbSqt-30">
          <mxGeometry x="-0.4383" y="2" relative="1" as="geometry">
            <mxPoint x="-6" as="offset" />
          </mxGeometry>
        </mxCell>
        <mxCell id="dWaKCrpgJfB4JmewbSqt-32" style="edgeStyle=orthogonalEdgeStyle;rounded=0;orthogonalLoop=1;jettySize=auto;html=1;" edge="1" parent="1" source="dWaKCrpgJfB4JmewbSqt-34">
          <mxGeometry relative="1" as="geometry">
            <mxPoint y="570" as="targetPoint" />
          </mxGeometry>
        </mxCell>
        <mxCell id="dWaKCrpgJfB4JmewbSqt-33" value="GND" style="edgeLabel;html=1;align=center;verticalAlign=middle;resizable=0;points=[];" vertex="1" connectable="0" parent="dWaKCrpgJfB4JmewbSqt-32">
          <mxGeometry x="-0.231" y="1" relative="1" as="geometry">
            <mxPoint as="offset" />
          </mxGeometry>
        </mxCell>
        <mxCell id="dWaKCrpgJfB4JmewbSqt-34" value="ESP32" style="whiteSpace=wrap;html=1;aspect=fixed;" vertex="1" parent="1">
          <mxGeometry x="50" y="490" width="160" height="160" as="geometry" />
        </mxCell>
        <mxCell id="dWaKCrpgJfB4JmewbSqt-35" style="edgeStyle=orthogonalEdgeStyle;rounded=0;orthogonalLoop=1;jettySize=auto;html=1;exitX=0.75;exitY=1;exitDx=0;exitDy=0;startArrow=classic;startFill=1;endArrow=none;" edge="1" parent="1" source="dWaKCrpgJfB4JmewbSqt-40">
          <mxGeometry relative="1" as="geometry">
            <mxPoint x="50" y="490" as="targetPoint" />
            <Array as="points">
              <mxPoint x="-77" y="460" />
              <mxPoint x="50" y="460" />
            </Array>
          </mxGeometry>
        </mxCell>
        <mxCell id="dWaKCrpgJfB4JmewbSqt-36" style="edgeStyle=orthogonalEdgeStyle;rounded=0;orthogonalLoop=1;jettySize=auto;html=1;exitX=1;exitY=0.25;exitDx=0;exitDy=0;" edge="1" parent="1" source="dWaKCrpgJfB4JmewbSqt-40">
          <mxGeometry relative="1" as="geometry">
            <mxPoint y="307.6190476190476" as="targetPoint" />
          </mxGeometry>
        </mxCell>
        <mxCell id="dWaKCrpgJfB4JmewbSqt-37" value="3.3v" style="edgeLabel;html=1;align=center;verticalAlign=middle;resizable=0;points=[];" vertex="1" connectable="0" parent="dWaKCrpgJfB4JmewbSqt-36">
          <mxGeometry x="-0.2054" y="1" relative="1" as="geometry">
            <mxPoint as="offset" />
          </mxGeometry>
        </mxCell>
        <mxCell id="dWaKCrpgJfB4JmewbSqt-38" style="edgeStyle=orthogonalEdgeStyle;rounded=0;orthogonalLoop=1;jettySize=auto;html=1;exitX=1;exitY=0.5;exitDx=0;exitDy=0;" edge="1" parent="1" source="dWaKCrpgJfB4JmewbSqt-40">
          <mxGeometry relative="1" as="geometry">
            <mxPoint y="335.2380952380952" as="targetPoint" />
          </mxGeometry>
        </mxCell>
        <mxCell id="dWaKCrpgJfB4JmewbSqt-39" value="GND" style="edgeLabel;html=1;align=center;verticalAlign=middle;resizable=0;points=[];" vertex="1" connectable="0" parent="dWaKCrpgJfB4JmewbSqt-38">
          <mxGeometry x="-0.17" y="1" relative="1" as="geometry">
            <mxPoint as="offset" />
          </mxGeometry>
        </mxCell>
        <mxCell id="dWaKCrpgJfB4JmewbSqt-40" value="MSP430FR2310" style="whiteSpace=wrap;html=1;aspect=fixed;" vertex="1" parent="1">
          <mxGeometry x="-160" y="280" width="110" height="110" as="geometry" />
        </mxCell>
        <mxCell id="dWaKCrpgJfB4JmewbSqt-41" style="edgeStyle=orthogonalEdgeStyle;rounded=0;orthogonalLoop=1;jettySize=auto;html=1;exitX=1;exitY=1;exitDx=0;exitDy=0;entryX=0.17;entryY=-0.018;entryDx=0;entryDy=0;entryPerimeter=0;endArrow=none;startFill=1;startArrow=classic;" edge="1" parent="1" source="dWaKCrpgJfB4JmewbSqt-40" target="dWaKCrpgJfB4JmewbSqt-34">
          <mxGeometry relative="1" as="geometry" />
        </mxCell>
        <mxCell id="dWaKCrpgJfB4JmewbSqt-42" style="edgeStyle=orthogonalEdgeStyle;rounded=0;orthogonalLoop=1;jettySize=auto;html=1;exitX=0;exitY=0.25;exitDx=0;exitDy=0;startArrow=classic;startFill=1;endArrow=none;" edge="1" parent="1" source="dWaKCrpgJfB4JmewbSqt-43">
          <mxGeometry relative="1" as="geometry">
            <mxPoint x="50" y="490" as="targetPoint" />
          </mxGeometry>
        </mxCell>
        <mxCell id="dWaKCrpgJfB4JmewbSqt-82" style="edgeStyle=orthogonalEdgeStyle;rounded=0;orthogonalLoop=1;jettySize=auto;html=1;" edge="1" parent="1" source="dWaKCrpgJfB4JmewbSqt-43">
          <mxGeometry relative="1" as="geometry">
            <mxPoint x="250" y="510" as="targetPoint" />
          </mxGeometry>
        </mxCell>
        <mxCell id="dWaKCrpgJfB4JmewbSqt-84" value="3.3v" style="edgeLabel;html=1;align=center;verticalAlign=middle;resizable=0;points=[];" vertex="1" connectable="0" parent="dWaKCrpgJfB4JmewbSqt-82">
          <mxGeometry x="-0.3139" y="-1" relative="1" as="geometry">
            <mxPoint x="-4" as="offset" />
          </mxGeometry>
        </mxCell>
        <mxCell id="dWaKCrpgJfB4JmewbSqt-83" style="edgeStyle=orthogonalEdgeStyle;rounded=0;orthogonalLoop=1;jettySize=auto;html=1;exitX=0.75;exitY=1;exitDx=0;exitDy=0;" edge="1" parent="1" source="dWaKCrpgJfB4JmewbSqt-43">
          <mxGeometry relative="1" as="geometry">
            <mxPoint x="270.19047619047615" y="510" as="targetPoint" />
          </mxGeometry>
        </mxCell>
        <mxCell id="dWaKCrpgJfB4JmewbSqt-85" value="GND" style="edgeLabel;html=1;align=center;verticalAlign=middle;resizable=0;points=[];" vertex="1" connectable="0" parent="dWaKCrpgJfB4JmewbSqt-83">
          <mxGeometry x="-0.2384" y="-1" relative="1" as="geometry">
            <mxPoint x="5" as="offset" />
          </mxGeometry>
        </mxCell>
        <mxCell id="dWaKCrpgJfB4JmewbSqt-43" value="DS3231" style="whiteSpace=wrap;html=1;aspect=fixed;" vertex="1" parent="1">
          <mxGeometry x="210" y="400" width="80" height="80" as="geometry" />
        </mxCell>
        <mxCell id="dWaKCrpgJfB4JmewbSqt-44" style="edgeStyle=orthogonalEdgeStyle;rounded=0;orthogonalLoop=1;jettySize=auto;html=1;entryX=0.17;entryY=0.009;entryDx=0;entryDy=0;entryPerimeter=0;endArrow=none;startFill=1;startArrow=classic;" edge="1" parent="1" source="dWaKCrpgJfB4JmewbSqt-43" target="dWaKCrpgJfB4JmewbSqt-34">
          <mxGeometry relative="1" as="geometry">
            <Array as="points">
              <mxPoint x="77" y="450" />
            </Array>
          </mxGeometry>
        </mxCell>
        <mxCell id="dWaKCrpgJfB4JmewbSqt-45" value="SDA" style="edgeLabel;html=1;align=center;verticalAlign=middle;resizable=0;points=[];" vertex="1" connectable="0" parent="1">
          <mxGeometry x="95.00196825094082" y="480.9978159598071" as="geometry">
            <mxPoint x="-18" y="-1" as="offset" />
          </mxGeometry>
        </mxCell>
        <mxCell id="dWaKCrpgJfB4JmewbSqt-46" value="SCL" style="edgeLabel;html=1;align=center;verticalAlign=middle;resizable=0;points=[];" vertex="1" connectable="0" parent="1">
          <mxGeometry x="50" y="479.9966666666667" as="geometry" />
        </mxCell>
        <mxCell id="dWaKCrpgJfB4JmewbSqt-47" style="edgeStyle=orthogonalEdgeStyle;rounded=0;orthogonalLoop=1;jettySize=auto;html=1;exitX=0;exitY=0;exitDx=0;exitDy=0;" edge="1" parent="1" source="dWaKCrpgJfB4JmewbSqt-54">
          <mxGeometry relative="1" as="geometry">
            <mxPoint x="-200" y="130" as="targetPoint" />
          </mxGeometry>
        </mxCell>
        <mxCell id="dWaKCrpgJfB4JmewbSqt-48" value="3.3v" style="edgeLabel;html=1;align=center;verticalAlign=middle;resizable=0;points=[];" vertex="1" connectable="0" parent="dWaKCrpgJfB4JmewbSqt-47">
          <mxGeometry x="-0.3444" relative="1" as="geometry">
            <mxPoint as="offset" />
          </mxGeometry>
        </mxCell>
        <mxCell id="dWaKCrpgJfB4JmewbSqt-49" style="edgeStyle=orthogonalEdgeStyle;rounded=0;orthogonalLoop=1;jettySize=auto;html=1;exitX=0.25;exitY=0;exitDx=0;exitDy=0;" edge="1" parent="1" source="dWaKCrpgJfB4JmewbSqt-54">
          <mxGeometry relative="1" as="geometry">
            <mxPoint x="-170" y="130" as="targetPoint" />
          </mxGeometry>
        </mxCell>
        <mxCell id="dWaKCrpgJfB4JmewbSqt-50" value="GND" style="edgeLabel;html=1;align=center;verticalAlign=middle;resizable=0;points=[];" vertex="1" connectable="0" parent="dWaKCrpgJfB4JmewbSqt-49">
          <mxGeometry x="-0.3052" relative="1" as="geometry">
            <mxPoint as="offset" />
          </mxGeometry>
        </mxCell>
        <mxCell id="dWaKCrpgJfB4JmewbSqt-51" style="edgeStyle=orthogonalEdgeStyle;rounded=0;orthogonalLoop=1;jettySize=auto;html=1;exitX=0;exitY=0.5;exitDx=0;exitDy=0;" edge="1" parent="1" source="dWaKCrpgJfB4JmewbSqt-54">
          <mxGeometry relative="1" as="geometry">
            <mxPoint x="-250" y="200" as="targetPoint" />
          </mxGeometry>
        </mxCell>
        <mxCell id="dWaKCrpgJfB4JmewbSqt-52" value="C" style="edgeLabel;html=1;align=center;verticalAlign=middle;resizable=0;points=[];" vertex="1" connectable="0" parent="dWaKCrpgJfB4JmewbSqt-51">
          <mxGeometry x="-0.1164" y="-1" relative="1" as="geometry">
            <mxPoint as="offset" />
          </mxGeometry>
        </mxCell>
        <mxCell id="dWaKCrpgJfB4JmewbSqt-53" style="edgeStyle=orthogonalEdgeStyle;rounded=0;orthogonalLoop=1;jettySize=auto;html=1;exitX=1;exitY=1;exitDx=0;exitDy=0;exitPerimeter=0;entryX=0.75;entryY=0;entryDx=0;entryDy=0;" edge="1" parent="1" source="dWaKCrpgJfB4JmewbSqt-54" target="dWaKCrpgJfB4JmewbSqt-40">
          <mxGeometry relative="1" as="geometry" />
        </mxCell>
        <mxCell id="dWaKCrpgJfB4JmewbSqt-54" value="LCD" style="rounded=0;whiteSpace=wrap;html=1;points=[[0,0,0,0,0],[0,0.25,0,0,0],[0,0.5,0,0,0],[0,0.75,0,0,0],[0,1,0,0,0],[0.13,1,0,0,0],[0.25,0,0,0,0],[0.25,1,0,0,0],[0.38,1,0,0,0],[0.5,0,0,0,0],[0.5,1,0,0,0],[0.63,1,0,0,0],[0.75,0,0,0,0],[0.75,1,0,0,0],[0.88,1,0,0,0],[1,0,0,0,0],[1,0.25,0,0,0],[1,0.5,0,0,0],[1,0.75,0,0,0],[1,1,0,0,0]];" vertex="1" parent="1">
          <mxGeometry x="-200" y="170" width="120" height="60" as="geometry" />
        </mxCell>
        <mxCell id="dWaKCrpgJfB4JmewbSqt-55" style="edgeStyle=orthogonalEdgeStyle;rounded=0;orthogonalLoop=1;jettySize=auto;html=1;exitX=0.88;exitY=1;exitDx=0;exitDy=0;exitPerimeter=0;entryX=0.636;entryY=0;entryDx=0;entryDy=0;entryPerimeter=0;" edge="1" parent="1" source="dWaKCrpgJfB4JmewbSqt-54" target="dWaKCrpgJfB4JmewbSqt-40">
          <mxGeometry relative="1" as="geometry" />
        </mxCell>
        <mxCell id="dWaKCrpgJfB4JmewbSqt-56" style="edgeStyle=orthogonalEdgeStyle;rounded=0;orthogonalLoop=1;jettySize=auto;html=1;exitX=0.75;exitY=1;exitDx=0;exitDy=0;exitPerimeter=0;entryX=0.519;entryY=-0.005;entryDx=0;entryDy=0;entryPerimeter=0;" edge="1" parent="1" source="dWaKCrpgJfB4JmewbSqt-54" target="dWaKCrpgJfB4JmewbSqt-40">
          <mxGeometry relative="1" as="geometry" />
        </mxCell>
        <mxCell id="dWaKCrpgJfB4JmewbSqt-57" style="edgeStyle=orthogonalEdgeStyle;rounded=0;orthogonalLoop=1;jettySize=auto;html=1;exitX=0.63;exitY=1;exitDx=0;exitDy=0;exitPerimeter=0;entryX=0.39;entryY=-0.01;entryDx=0;entryDy=0;entryPerimeter=0;" edge="1" parent="1" source="dWaKCrpgJfB4JmewbSqt-54" target="dWaKCrpgJfB4JmewbSqt-40">
          <mxGeometry relative="1" as="geometry" />
        </mxCell>
        <mxCell id="dWaKCrpgJfB4JmewbSqt-58" style="edgeStyle=orthogonalEdgeStyle;rounded=0;orthogonalLoop=1;jettySize=auto;html=1;entryX=0.226;entryY=-0.007;entryDx=0;entryDy=0;entryPerimeter=0;" edge="1" parent="1" source="dWaKCrpgJfB4JmewbSqt-54" target="dWaKCrpgJfB4JmewbSqt-40">
          <mxGeometry relative="1" as="geometry" />
        </mxCell>
        <mxCell id="dWaKCrpgJfB4JmewbSqt-59" style="edgeStyle=orthogonalEdgeStyle;rounded=0;orthogonalLoop=1;jettySize=auto;html=1;exitX=0.38;exitY=1;exitDx=0;exitDy=0;exitPerimeter=0;entryX=0.091;entryY=0;entryDx=0;entryDy=0;entryPerimeter=0;" edge="1" parent="1" source="dWaKCrpgJfB4JmewbSqt-54" target="dWaKCrpgJfB4JmewbSqt-40">
          <mxGeometry relative="1" as="geometry" />
        </mxCell>
        <mxCell id="dWaKCrpgJfB4JmewbSqt-78" style="edgeStyle=orthogonalEdgeStyle;rounded=0;orthogonalLoop=1;jettySize=auto;html=1;exitX=0.25;exitY=1;exitDx=0;exitDy=0;" edge="1" parent="1" source="dWaKCrpgJfB4JmewbSqt-60">
          <mxGeometry relative="1" as="geometry">
            <mxPoint x="-259.80952380952385" y="530" as="targetPoint" />
          </mxGeometry>
        </mxCell>
        <mxCell id="dWaKCrpgJfB4JmewbSqt-80" value="3.3v" style="edgeLabel;html=1;align=center;verticalAlign=middle;resizable=0;points=[];" vertex="1" connectable="0" parent="dWaKCrpgJfB4JmewbSqt-78">
          <mxGeometry x="-0.2984" y="-1" relative="1" as="geometry">
            <mxPoint x="-4" y="1" as="offset" />
          </mxGeometry>
        </mxCell>
        <mxCell id="dWaKCrpgJfB4JmewbSqt-79" style="edgeStyle=orthogonalEdgeStyle;rounded=0;orthogonalLoop=1;jettySize=auto;html=1;" edge="1" parent="1" source="dWaKCrpgJfB4JmewbSqt-60">
          <mxGeometry relative="1" as="geometry">
            <mxPoint x="-240" y="530" as="targetPoint" />
          </mxGeometry>
        </mxCell>
        <mxCell id="dWaKCrpgJfB4JmewbSqt-81" value="GND" style="edgeLabel;html=1;align=center;verticalAlign=middle;resizable=0;points=[];" vertex="1" connectable="0" parent="dWaKCrpgJfB4JmewbSqt-79">
          <mxGeometry x="-0.2716" relative="1" as="geometry">
            <mxPoint x="2" as="offset" />
          </mxGeometry>
        </mxCell>
        <mxCell id="dWaKCrpgJfB4JmewbSqt-60" value="LM92" style="whiteSpace=wrap;html=1;aspect=fixed;" vertex="1" parent="1">
          <mxGeometry x="-280" y="410" width="80" height="80" as="geometry" />
        </mxCell>
        <mxCell id="dWaKCrpgJfB4JmewbSqt-61" style="edgeStyle=orthogonalEdgeStyle;rounded=0;orthogonalLoop=1;jettySize=auto;html=1;exitX=0;exitY=0;exitDx=0;exitDy=0;entryX=1.001;entryY=0.619;entryDx=0;entryDy=0;entryPerimeter=0;" edge="1" parent="1" source="dWaKCrpgJfB4JmewbSqt-34" target="dWaKCrpgJfB4JmewbSqt-60">
          <mxGeometry relative="1" as="geometry">
            <Array as="points">
              <mxPoint x="50" y="460" />
            </Array>
          </mxGeometry>
        </mxCell>
        <mxCell id="dWaKCrpgJfB4JmewbSqt-62" style="edgeStyle=orthogonalEdgeStyle;rounded=0;orthogonalLoop=1;jettySize=auto;html=1;entryX=0.169;entryY=-0.001;entryDx=0;entryDy=0;entryPerimeter=0;endArrow=none;startFill=1;startArrow=classic;" edge="1" parent="1" target="dWaKCrpgJfB4JmewbSqt-34">
          <mxGeometry relative="1" as="geometry">
            <mxPoint x="-200" y="440" as="sourcePoint" />
            <Array as="points">
              <mxPoint x="-200" y="440" />
              <mxPoint x="77" y="440" />
            </Array>
          </mxGeometry>
        </mxCell>
        <mxCell id="dWaKCrpgJfB4JmewbSqt-69" value="P21" style="rounded=0;whiteSpace=wrap;html=1;rotation=60;" vertex="1" parent="1">
          <mxGeometry x="40" y="500" width="30" height="10" as="geometry" />
        </mxCell>
        <mxCell id="dWaKCrpgJfB4JmewbSqt-70" value="P22" style="rounded=0;whiteSpace=wrap;html=1;rotation=60;" vertex="1" parent="1">
          <mxGeometry x="67" y="500" width="30" height="10" as="geometry" />
        </mxCell>
        <mxCell id="dWaKCrpgJfB4JmewbSqt-71" value="P18" style="rounded=0;whiteSpace=wrap;html=1;rotation=60;" vertex="1" parent="1">
          <mxGeometry x="103" y="500" width="30" height="10" as="geometry" />
        </mxCell>
        <mxCell id="dWaKCrpgJfB4JmewbSqt-72" value="P1.0" style="rounded=0;whiteSpace=wrap;html=1;rotation=60;" vertex="1" parent="1">
          <mxGeometry x="-160" y="290" width="30" height="10" as="geometry" />
        </mxCell>
        <mxCell id="dWaKCrpgJfB4JmewbSqt-73" value="P1.1" style="rounded=0;whiteSpace=wrap;html=1;rotation=60;" vertex="1" parent="1">
          <mxGeometry x="-144" y="290" width="30" height="10" as="geometry" />
        </mxCell>
        <mxCell id="dWaKCrpgJfB4JmewbSqt-74" value="P1.4" style="rounded=0;whiteSpace=wrap;html=1;rotation=60;" vertex="1" parent="1">
          <mxGeometry x="-125" y="290" width="30" height="10" as="geometry" />
        </mxCell>
        <mxCell id="dWaKCrpgJfB4JmewbSqt-75" value="P1.5" style="rounded=0;whiteSpace=wrap;html=1;rotation=60;" vertex="1" parent="1">
          <mxGeometry x="-110" y="290" width="30" height="10" as="geometry" />
        </mxCell>
        <mxCell id="dWaKCrpgJfB4JmewbSqt-76" value="P1.6" style="rounded=0;whiteSpace=wrap;html=1;rotation=60;" vertex="1" parent="1">
          <mxGeometry x="-95" y="290" width="30" height="10" as="geometry" />
        </mxCell>
        <mxCell id="dWaKCrpgJfB4JmewbSqt-77" value="P1.7" style="rounded=0;whiteSpace=wrap;html=1;rotation=60;" vertex="1" parent="1">
          <mxGeometry x="-80" y="290" width="30" height="10" as="geometry" />
        </mxCell>
      </root>
    </mxGraphModel>
  </diagram>
  <diagram id="eFE077YbBvcHrZTk1TB9" name="System Flowchart">
    <mxGraphModel dx="1076" dy="1409" grid="1" gridSize="10" guides="1" tooltips="1" connect="1" arrows="1" fold="1" page="1" pageScale="1" pageWidth="850" pageHeight="1100" math="0" shadow="0">
      <root>
        <mxCell id="0" />
        <mxCell id="1" parent="0" />
        <mxCell id="7_5U85Hy29MgopEqbLcO-3" style="edgeStyle=orthogonalEdgeStyle;rounded=0;orthogonalLoop=1;jettySize=auto;html=1;entryX=0.5;entryY=0;entryDx=0;entryDy=0;" edge="1" parent="1" source="7_5U85Hy29MgopEqbLcO-1" target="7_5U85Hy29MgopEqbLcO-2">
          <mxGeometry relative="1" as="geometry" />
        </mxCell>
        <mxCell id="7_5U85Hy29MgopEqbLcO-1" value="main" style="rounded=1;whiteSpace=wrap;html=1;" vertex="1" parent="1">
          <mxGeometry x="320" y="230" width="120" height="60" as="geometry" />
        </mxCell>
        <mxCell id="7_5U85Hy29MgopEqbLcO-5" style="edgeStyle=orthogonalEdgeStyle;rounded=0;orthogonalLoop=1;jettySize=auto;html=1;exitX=1;exitY=0.5;exitDx=0;exitDy=0;entryX=0;entryY=0.5;entryDx=0;entryDy=0;" edge="1" parent="1" source="7_5U85Hy29MgopEqbLcO-2" target="7_5U85Hy29MgopEqbLcO-4">
          <mxGeometry relative="1" as="geometry" />
        </mxCell>
        <mxCell id="7_5U85Hy29MgopEqbLcO-10" style="edgeStyle=orthogonalEdgeStyle;rounded=0;orthogonalLoop=1;jettySize=auto;html=1;entryX=0.5;entryY=0;entryDx=0;entryDy=0;" edge="1" parent="1" source="7_5U85Hy29MgopEqbLcO-2" target="7_5U85Hy29MgopEqbLcO-6">
          <mxGeometry relative="1" as="geometry" />
        </mxCell>
        <mxCell id="7_5U85Hy29MgopEqbLcO-2" value="setup();" style="rounded=1;whiteSpace=wrap;html=1;" vertex="1" parent="1">
          <mxGeometry x="320" y="350" width="120" height="60" as="geometry" />
        </mxCell>
        <mxCell id="7_5U85Hy29MgopEqbLcO-9" style="edgeStyle=orthogonalEdgeStyle;rounded=0;orthogonalLoop=1;jettySize=auto;html=1;entryX=0.5;entryY=0;entryDx=0;entryDy=0;" edge="1" parent="1" source="7_5U85Hy29MgopEqbLcO-4" target="7_5U85Hy29MgopEqbLcO-7">
          <mxGeometry relative="1" as="geometry" />
        </mxCell>
        <mxCell id="7_5U85Hy29MgopEqbLcO-29" style="edgeStyle=orthogonalEdgeStyle;rounded=0;orthogonalLoop=1;jettySize=auto;html=1;entryX=0;entryY=0.5;entryDx=0;entryDy=0;" edge="1" parent="1" source="7_5U85Hy29MgopEqbLcO-4" target="7_5U85Hy29MgopEqbLcO-30">
          <mxGeometry relative="1" as="geometry">
            <mxPoint x="800" y="255" as="targetPoint" />
          </mxGeometry>
        </mxCell>
        <mxCell id="7_5U85Hy29MgopEqbLcO-4" value="LAC_init();" style="rounded=1;whiteSpace=wrap;html=1;" vertex="1" parent="1">
          <mxGeometry x="590" y="350" width="120" height="60" as="geometry" />
        </mxCell>
        <mxCell id="7_5U85Hy29MgopEqbLcO-13" style="edgeStyle=orthogonalEdgeStyle;rounded=0;orthogonalLoop=1;jettySize=auto;html=1;entryX=1;entryY=0.5;entryDx=0;entryDy=0;" edge="1" parent="1" source="7_5U85Hy29MgopEqbLcO-6" target="7_5U85Hy29MgopEqbLcO-12">
          <mxGeometry relative="1" as="geometry" />
        </mxCell>
        <mxCell id="7_5U85Hy29MgopEqbLcO-6" value="loop();" style="rounded=1;whiteSpace=wrap;html=1;" vertex="1" parent="1">
          <mxGeometry x="320" y="470" width="120" height="60" as="geometry" />
        </mxCell>
        <mxCell id="7_5U85Hy29MgopEqbLcO-7" value="LAC_update();" style="rounded=1;whiteSpace=wrap;html=1;" vertex="1" parent="1">
          <mxGeometry x="590" y="470" width="120" height="60" as="geometry" />
        </mxCell>
        <mxCell id="7_5U85Hy29MgopEqbLcO-8" style="edgeStyle=orthogonalEdgeStyle;rounded=0;orthogonalLoop=1;jettySize=auto;html=1;entryX=1;entryY=0.5;entryDx=0;entryDy=0;" edge="1" parent="1" source="7_5U85Hy29MgopEqbLcO-7" target="7_5U85Hy29MgopEqbLcO-7">
          <mxGeometry relative="1" as="geometry">
            <Array as="points">
              <mxPoint x="650" y="550" />
              <mxPoint x="730" y="550" />
              <mxPoint x="730" y="500" />
            </Array>
          </mxGeometry>
        </mxCell>
        <mxCell id="7_5U85Hy29MgopEqbLcO-15" style="edgeStyle=orthogonalEdgeStyle;rounded=0;orthogonalLoop=1;jettySize=auto;html=1;" edge="1" parent="1" source="7_5U85Hy29MgopEqbLcO-12" target="7_5U85Hy29MgopEqbLcO-14">
          <mxGeometry relative="1" as="geometry" />
        </mxCell>
        <mxCell id="7_5U85Hy29MgopEqbLcO-12" value="web_server_loop();" style="rounded=1;whiteSpace=wrap;html=1;" vertex="1" parent="1">
          <mxGeometry x="110" y="230" width="120" height="50" as="geometry" />
        </mxCell>
        <mxCell id="7_5U85Hy29MgopEqbLcO-17" style="edgeStyle=orthogonalEdgeStyle;rounded=0;orthogonalLoop=1;jettySize=auto;html=1;" edge="1" parent="1" source="7_5U85Hy29MgopEqbLcO-14" target="7_5U85Hy29MgopEqbLcO-16">
          <mxGeometry relative="1" as="geometry" />
        </mxCell>
        <mxCell id="7_5U85Hy29MgopEqbLcO-14" value="rtc_get_time_bytes();" style="rounded=1;whiteSpace=wrap;html=1;" vertex="1" parent="1">
          <mxGeometry x="110" y="320" width="120" height="50" as="geometry" />
        </mxCell>
        <mxCell id="7_5U85Hy29MgopEqbLcO-25" style="edgeStyle=orthogonalEdgeStyle;rounded=0;orthogonalLoop=1;jettySize=auto;html=1;" edge="1" parent="1" source="7_5U85Hy29MgopEqbLcO-16" target="7_5U85Hy29MgopEqbLcO-22">
          <mxGeometry relative="1" as="geometry" />
        </mxCell>
        <mxCell id="7_5U85Hy29MgopEqbLcO-16" value="lm92_temp_bytes();" style="rounded=1;whiteSpace=wrap;html=1;" vertex="1" parent="1">
          <mxGeometry x="110" y="410" width="120" height="50" as="geometry" />
        </mxCell>
        <mxCell id="7_5U85Hy29MgopEqbLcO-21" style="edgeStyle=orthogonalEdgeStyle;rounded=0;orthogonalLoop=1;jettySize=auto;html=1;entryX=0.5;entryY=0;entryDx=0;entryDy=0;" edge="1" parent="1" source="7_5U85Hy29MgopEqbLcO-18" target="7_5U85Hy29MgopEqbLcO-20">
          <mxGeometry relative="1" as="geometry" />
        </mxCell>
        <mxCell id="7_5U85Hy29MgopEqbLcO-18" value="LAC_update_string();" style="rounded=1;whiteSpace=wrap;html=1;" vertex="1" parent="1">
          <mxGeometry x="110" y="580" width="120" height="50" as="geometry" />
        </mxCell>
        <mxCell id="7_5U85Hy29MgopEqbLcO-23" style="edgeStyle=orthogonalEdgeStyle;rounded=0;orthogonalLoop=1;jettySize=auto;html=1;entryX=0.5;entryY=1;entryDx=0;entryDy=0;" edge="1" parent="1" source="7_5U85Hy29MgopEqbLcO-20" target="7_5U85Hy29MgopEqbLcO-6">
          <mxGeometry relative="1" as="geometry" />
        </mxCell>
        <mxCell id="7_5U85Hy29MgopEqbLcO-20" value="lcd_writeBottom();" style="rounded=1;whiteSpace=wrap;html=1;" vertex="1" parent="1">
          <mxGeometry x="110" y="660" width="120" height="50" as="geometry" />
        </mxCell>
        <mxCell id="7_5U85Hy29MgopEqbLcO-26" style="edgeStyle=orthogonalEdgeStyle;rounded=0;orthogonalLoop=1;jettySize=auto;html=1;" edge="1" parent="1" source="7_5U85Hy29MgopEqbLcO-22" target="7_5U85Hy29MgopEqbLcO-18">
          <mxGeometry relative="1" as="geometry" />
        </mxCell>
        <mxCell id="7_5U85Hy29MgopEqbLcO-22" value="LAC_update_string();" style="rounded=1;whiteSpace=wrap;html=1;" vertex="1" parent="1">
          <mxGeometry x="110" y="500" width="120" height="50" as="geometry" />
        </mxCell>
        <mxCell id="7_5U85Hy29MgopEqbLcO-32" style="edgeStyle=orthogonalEdgeStyle;rounded=0;orthogonalLoop=1;jettySize=auto;html=1;entryX=0.5;entryY=0;entryDx=0;entryDy=0;" edge="1" parent="1" source="7_5U85Hy29MgopEqbLcO-30" target="7_5U85Hy29MgopEqbLcO-31">
          <mxGeometry relative="1" as="geometry" />
        </mxCell>
        <mxCell id="7_5U85Hy29MgopEqbLcO-40" style="edgeStyle=orthogonalEdgeStyle;rounded=0;orthogonalLoop=1;jettySize=auto;html=1;entryX=0;entryY=0.5;entryDx=0;entryDy=0;" edge="1" parent="1" source="7_5U85Hy29MgopEqbLcO-30" target="7_5U85Hy29MgopEqbLcO-39">
          <mxGeometry relative="1" as="geometry" />
        </mxCell>
        <mxCell id="7_5U85Hy29MgopEqbLcO-30" value="mode == 1" style="rhombus;whiteSpace=wrap;html=1;" vertex="1" parent="1">
          <mxGeometry x="800" y="220" width="80" height="80" as="geometry" />
        </mxCell>
        <mxCell id="7_5U85Hy29MgopEqbLcO-34" style="edgeStyle=orthogonalEdgeStyle;rounded=0;orthogonalLoop=1;jettySize=auto;html=1;entryX=0.5;entryY=0;entryDx=0;entryDy=0;" edge="1" parent="1" source="7_5U85Hy29MgopEqbLcO-31" target="7_5U85Hy29MgopEqbLcO-33">
          <mxGeometry relative="1" as="geometry" />
        </mxCell>
        <mxCell id="7_5U85Hy29MgopEqbLcO-42" style="edgeStyle=orthogonalEdgeStyle;rounded=0;orthogonalLoop=1;jettySize=auto;html=1;entryX=0;entryY=0.5;entryDx=0;entryDy=0;" edge="1" parent="1" source="7_5U85Hy29MgopEqbLcO-31" target="7_5U85Hy29MgopEqbLcO-41">
          <mxGeometry relative="1" as="geometry" />
        </mxCell>
        <mxCell id="7_5U85Hy29MgopEqbLcO-31" value="mode == 2" style="rhombus;whiteSpace=wrap;html=1;" vertex="1" parent="1">
          <mxGeometry x="800" y="330" width="80" height="80" as="geometry" />
        </mxCell>
        <mxCell id="7_5U85Hy29MgopEqbLcO-36" style="edgeStyle=orthogonalEdgeStyle;rounded=0;orthogonalLoop=1;jettySize=auto;html=1;entryX=0.5;entryY=0;entryDx=0;entryDy=0;" edge="1" parent="1" source="7_5U85Hy29MgopEqbLcO-33">
          <mxGeometry relative="1" as="geometry">
            <mxPoint x="840" y="550" as="targetPoint" />
          </mxGeometry>
        </mxCell>
        <mxCell id="7_5U85Hy29MgopEqbLcO-44" style="edgeStyle=orthogonalEdgeStyle;rounded=0;orthogonalLoop=1;jettySize=auto;html=1;entryX=0;entryY=0.5;entryDx=0;entryDy=0;" edge="1" parent="1" source="7_5U85Hy29MgopEqbLcO-33" target="7_5U85Hy29MgopEqbLcO-43">
          <mxGeometry relative="1" as="geometry" />
        </mxCell>
        <mxCell id="7_5U85Hy29MgopEqbLcO-33" value="mode == 3" style="rhombus;whiteSpace=wrap;html=1;" vertex="1" parent="1">
          <mxGeometry x="800" y="440" width="80" height="80" as="geometry" />
        </mxCell>
        <mxCell id="7_5U85Hy29MgopEqbLcO-37" style="edgeStyle=orthogonalEdgeStyle;rounded=0;orthogonalLoop=1;jettySize=auto;html=1;entryX=0.25;entryY=1;entryDx=0;entryDy=0;exitX=0;exitY=0.5;exitDx=0;exitDy=0;" edge="1" parent="1" source="7_5U85Hy29MgopEqbLcO-38" target="7_5U85Hy29MgopEqbLcO-7">
          <mxGeometry relative="1" as="geometry">
            <mxPoint x="800" y="590" as="sourcePoint" />
          </mxGeometry>
        </mxCell>
        <mxCell id="7_5U85Hy29MgopEqbLcO-38" value="turn off all leds" style="rounded=1;whiteSpace=wrap;html=1;" vertex="1" parent="1">
          <mxGeometry x="780" y="550" width="120" height="60" as="geometry" />
        </mxCell>
        <mxCell id="7_5U85Hy29MgopEqbLcO-47" style="edgeStyle=orthogonalEdgeStyle;rounded=0;orthogonalLoop=1;jettySize=auto;html=1;" edge="1" parent="1" source="7_5U85Hy29MgopEqbLcO-39">
          <mxGeometry relative="1" as="geometry">
            <mxPoint x="1100" y="370" as="targetPoint" />
          </mxGeometry>
        </mxCell>
        <mxCell id="7_5U85Hy29MgopEqbLcO-39" value="Scroll text, print time" style="rounded=1;whiteSpace=wrap;html=1;" vertex="1" parent="1">
          <mxGeometry x="940" y="230" width="120" height="60" as="geometry" />
        </mxCell>
        <mxCell id="7_5U85Hy29MgopEqbLcO-46" style="edgeStyle=orthogonalEdgeStyle;rounded=0;orthogonalLoop=1;jettySize=auto;html=1;exitX=1;exitY=0.5;exitDx=0;exitDy=0;" edge="1" parent="1" source="7_5U85Hy29MgopEqbLcO-41">
          <mxGeometry relative="1" as="geometry">
            <mxPoint x="1100" y="480" as="targetPoint" />
          </mxGeometry>
        </mxCell>
        <mxCell id="7_5U85Hy29MgopEqbLcO-41" value="print temp &amp;amp; time" style="rounded=1;whiteSpace=wrap;html=1;" vertex="1" parent="1">
          <mxGeometry x="940" y="340" width="120" height="60" as="geometry" />
        </mxCell>
        <mxCell id="7_5U85Hy29MgopEqbLcO-45" style="edgeStyle=orthogonalEdgeStyle;rounded=0;orthogonalLoop=1;jettySize=auto;html=1;exitX=1;exitY=0.5;exitDx=0;exitDy=0;" edge="1" parent="1" source="7_5U85Hy29MgopEqbLcO-43">
          <mxGeometry relative="1" as="geometry">
            <mxPoint x="620" y="530" as="targetPoint" />
            <Array as="points">
              <mxPoint x="1100" y="480" />
              <mxPoint x="1100" y="650" />
              <mxPoint x="621" y="650" />
              <mxPoint x="621" y="530" />
            </Array>
          </mxGeometry>
        </mxCell>
        <mxCell id="7_5U85Hy29MgopEqbLcO-43" value="print message staticly" style="rounded=1;whiteSpace=wrap;html=1;" vertex="1" parent="1">
          <mxGeometry x="940" y="450" width="120" height="60" as="geometry" />
        </mxCell>
      </root>
    </mxGraphModel>
  </diagram>
  <diagram id="H8zihMVHd8xiwavgnMyP" name="Page-3">
    <mxGraphModel grid="1" page="1" gridSize="10" guides="1" tooltips="1" connect="1" arrows="1" fold="1" pageScale="1" pageWidth="850" pageHeight="1100" math="0" shadow="0">
      <root>
        <mxCell id="0" />
        <mxCell id="1" parent="0" />
      </root>
    </mxGraphModel>
  </diagram>
</mxfile>
